:FULLY-SPECIFIED
:FORCE-ALL-JOINTS-BE-3DOF
:DEGREES
611
root 5.63209 16.6842 -3.7853 0.0858003 52.3252 -7.82761
lfemur -17.8565 24.6899 -22.276
ltibia 40.1921 0 0
lfoot -33.007 25.3668 0
ltoes 19.2057 0 0
rfemur -53.0716 -17.9039 27.5715
rtibia 63.0832 0 0
rfoot 8.45706 29.8871 0
rtoes -5.03324 0 0
lowerback 3.56658 -3.33723 -4.81624
upperback 0.0842973 -4.6242 1.12952
thorax -1.43605 -2.2755 4.05879
lowerneck -8.43187 -9.31561 -0.48049
upperneck 14.9717 -13.2635 4.35252
head 6.26927 -6.10829 0.382969
lclavicle 8.64358e-14 1.16999e-14 0
lhumerus -22.2708 -42.0252 92.9898
lradius 56.8003 0 0
lwrist 20.6272 0 0
lhand -10.7547 0.119483 0
lfingers 7.12502 0 0
lthumb 15.2568 29.5366 0
rclavicle 8.64358e-14 1.16999e-14 0
rhumerus 22.297 3.55773 -72.1331
rradius 117.997 0 0
rwrist -58.7346 0 0
rhand -27.3067 -22.8225 0
rfingers 7.12502 0 0
rthumb -0.716271 -772.799 0
612
root 5.64404 16.7048 -3.7994 0.565124 50.6362 -7.43774
lfemur -17.6354 24.8734 -22.59
ltibia 39.6782 0 0
lfoot -33.5078 25.663 0
ltoes 20.851 0 0
rfemur -53.0942 -18.0035 27.0183
rtibia 64.4152 0 0
rfoot 8.84075 29.6401 0
rtoes -6.23504 0 0
lowerback 3.42206 -3.4088 -4.64454
upperback -0.0272594 -4.70839 1.17411
thorax -1.47208 -2.31605 4.00605
lowerneck -8.60764 -9.09926 -0.329722
upperneck 15.0513 -12.9494 4.04123
head 6.28769 -5.9684 0.281815
lclavicle 7.57654e-14 1.3063e-14 0
lhumerus -22.2778 -42.6291 93.5451
lradius 57.3999 0 0
lwrist 20.5874 0 0
lhand -10.878 -0.103242 0
lfingers 7.12502 0 0
lthumb 15.138 29.3227 0
rclavicle 7.57654e-14 1.3063e-14 0
rhumerus 21.8311 3.22269 -71.8653
rradius 116.667 0 0
rwrist -58.7073 0 0
rhand -27.7002 -23.4561 0
rfingers 7.12502 0 0
rthumb -1.09636 -773.429 0
613
root 5.65599 16.7255 -3.8135 1.04445 48.9471 -7.04786
lfemur -17.4142 25.0568 -22.9041
ltibia 39.1642 0 0
lfoot -34.0085 25.9592 0
ltoes 22.4962 0 0
rfemur -53.1169 -18.1032 26.465
rtibia 65.7473 0 0
rfoot 9.22444 29.3932 0
rtoes -7.43683 0 0
lowerback 3.27753 -3.48036 -4.47283
upperback -0.138816 -4.79258 1.2187
thorax -1.50811 -2.3566 3.9533
lowerneck -8.78342 -8.88291 -0.178955
upperneck 15.1309 -12.6353 3.72993
head 6.30611 -5.82852 0.18066
lclavicle 6.50949e-14 1.44261e-14 0
lhumerus -22.2849 -43.233 94.1005
lradius 57.9996 0 0
lwrist 20.5475 0 0
lhand -11.0013 -0.325968 0
lfingers 7.12502 0 0
lthumb 15.0192 29.1088 0
rclavicle 6.50949e-14 1.44261e-14 0
rhumerus 21.3652 2.88765 -71.5976
rradius 115.336 0 0
rwrist -58.6799 0 0
rhand -28.0938 -24.0897 0
rfingers 7.12502 0 0
rthumb -1.47645 -774.06 0
614
root 5.66795 16.7462 -3.82759 1.52377 47.2581 -6.65799
lfemur -17.1931 25.2402 -23.2182
ltibia 38.6502 0 0
lfoot -34.5092 26.2555 0
ltoes 24.1415 0 0
rfemur -53.1395 -18.2029 25.9117
rtibia 67.0793 0 0
rfoot 9.60813 29.1463 0
rtoes -8.63862 0 0
lowerback 3.13301 -3.55193 -4.30112
upperback -0.250373 -4.87677 1.26328
thorax -1.54415 -2.39714 3.90056
lowerneck -8.9592 -8.66656 -0.0281879
upperneck 15.2106 -12.3213 3.41863
head 6.32452 -5.68864 0.0795057
lclavicle 5.44244e-14 1.57892e-14 0
lhumerus -22.2919 -43.8369 94.6558
lradius 58.5993 0 0
lwrist 20.5076 0 0
lhand -11.1247 -0.548693 0
lfingers 7.12502 0 0
lthumb 14.9004 28.895 0
rclavicle 5.44244e-14 1.57892e-14 0
rhumerus 20.8993 2.5526 -71.3298
rradius 114.005 0 0
rwrist -58.6526 0 0
rhand -28.4873 -24.7234 0
rfingers 7.12502 0 0
rthumb -1.85654 -774.691 0
